<mxfile host="app.diagrams.net" agent="Mozilla/5.0 (Windows NT 10.0; Win64; x64) AppleWebKit/537.36 (KHTML, like Gecko) Chrome/128.0.0.0 Safari/537.36 Edg/128.0.0.0" version="27.2.0">
  <diagram name="第 1 页" id="zSJt413UwZgxZoiSQmrT">
    <mxGraphModel dx="2661" dy="866" grid="1" gridSize="10" guides="1" tooltips="1" connect="1" arrows="1" fold="1" page="1" pageScale="1" pageWidth="900" pageHeight="1600" math="0" shadow="0">
      <root>
        <mxCell id="0" />
        <mxCell id="1" parent="0" />
        <mxCell id="FPqpkHdSP8rBFJN2-_jl-1" value="直接下一步" style="rounded=1;whiteSpace=wrap;html=1;" vertex="1" parent="1">
          <mxGeometry x="740" y="140" width="120" height="60" as="geometry" />
        </mxCell>
        <mxCell id="FPqpkHdSP8rBFJN2-_jl-8" style="edgeStyle=orthogonalEdgeStyle;rounded=0;orthogonalLoop=1;jettySize=auto;html=1;exitX=0;exitY=0.5;exitDx=0;exitDy=0;entryX=0.5;entryY=0;entryDx=0;entryDy=0;" edge="1" parent="1" source="FPqpkHdSP8rBFJN2-_jl-2" target="FPqpkHdSP8rBFJN2-_jl-6">
          <mxGeometry relative="1" as="geometry" />
        </mxCell>
        <mxCell id="FPqpkHdSP8rBFJN2-_jl-9" style="edgeStyle=orthogonalEdgeStyle;rounded=0;orthogonalLoop=1;jettySize=auto;html=1;exitX=0.5;exitY=1;exitDx=0;exitDy=0;entryX=0.5;entryY=0;entryDx=0;entryDy=0;" edge="1" parent="1" source="FPqpkHdSP8rBFJN2-_jl-2" target="FPqpkHdSP8rBFJN2-_jl-3">
          <mxGeometry relative="1" as="geometry" />
        </mxCell>
        <mxCell id="FPqpkHdSP8rBFJN2-_jl-2" value="判断是否有起止时间和结束时间？" style="rhombus;whiteSpace=wrap;html=1;" vertex="1" parent="1">
          <mxGeometry x="230" y="40" width="210" height="80" as="geometry" />
        </mxCell>
        <mxCell id="FPqpkHdSP8rBFJN2-_jl-12" style="edgeStyle=orthogonalEdgeStyle;rounded=0;orthogonalLoop=1;jettySize=auto;html=1;exitX=1;exitY=0.5;exitDx=0;exitDy=0;entryX=0.5;entryY=0;entryDx=0;entryDy=0;" edge="1" parent="1" source="FPqpkHdSP8rBFJN2-_jl-3" target="FPqpkHdSP8rBFJN2-_jl-11">
          <mxGeometry relative="1" as="geometry" />
        </mxCell>
        <mxCell id="FPqpkHdSP8rBFJN2-_jl-3" value="判断上一次点检的时间是否在这个范围内？" style="rhombus;whiteSpace=wrap;html=1;" vertex="1" parent="1">
          <mxGeometry x="230" y="150" width="210" height="80" as="geometry" />
        </mxCell>
        <mxCell id="FPqpkHdSP8rBFJN2-_jl-4" value="直接下一步" style="rounded=1;whiteSpace=wrap;html=1;" vertex="1" parent="1">
          <mxGeometry x="515" y="380" width="120" height="60" as="geometry" />
        </mxCell>
        <mxCell id="FPqpkHdSP8rBFJN2-_jl-5" value="报错提示" style="rounded=1;whiteSpace=wrap;html=1;" vertex="1" parent="1">
          <mxGeometry x="710" y="380" width="120" height="60" as="geometry" />
        </mxCell>
        <mxCell id="FPqpkHdSP8rBFJN2-_jl-6" value="判断上一次点检的时间到现在的时间是否超过有效期？" style="rhombus;whiteSpace=wrap;html=1;" vertex="1" parent="1">
          <mxGeometry x="-50" y="150" width="210" height="80" as="geometry" />
        </mxCell>
        <mxCell id="FPqpkHdSP8rBFJN2-_jl-7" value="" style="endArrow=none;html=1;rounded=0;" edge="1" parent="1">
          <mxGeometry width="50" height="50" relative="1" as="geometry">
            <mxPoint x="820" y="510" as="sourcePoint" />
            <mxPoint x="870" y="460" as="targetPoint" />
          </mxGeometry>
        </mxCell>
        <mxCell id="FPqpkHdSP8rBFJN2-_jl-10" value="" style="rhombus;whiteSpace=wrap;html=1;" vertex="1" parent="1">
          <mxGeometry x="470" y="560" width="80" height="80" as="geometry" />
        </mxCell>
        <mxCell id="FPqpkHdSP8rBFJN2-_jl-13" style="edgeStyle=orthogonalEdgeStyle;rounded=0;orthogonalLoop=1;jettySize=auto;html=1;exitX=1;exitY=0.5;exitDx=0;exitDy=0;entryX=0.5;entryY=0;entryDx=0;entryDy=0;" edge="1" parent="1" source="FPqpkHdSP8rBFJN2-_jl-11" target="FPqpkHdSP8rBFJN2-_jl-5">
          <mxGeometry relative="1" as="geometry" />
        </mxCell>
        <mxCell id="FPqpkHdSP8rBFJN2-_jl-14" style="edgeStyle=orthogonalEdgeStyle;rounded=0;orthogonalLoop=1;jettySize=auto;html=1;exitX=0.5;exitY=1;exitDx=0;exitDy=0;entryX=0.5;entryY=0;entryDx=0;entryDy=0;" edge="1" parent="1" source="FPqpkHdSP8rBFJN2-_jl-11" target="FPqpkHdSP8rBFJN2-_jl-4">
          <mxGeometry relative="1" as="geometry" />
        </mxCell>
        <mxCell id="FPqpkHdSP8rBFJN2-_jl-11" value="判断上一次点检的时间的有效期距离现在是否过期？" style="rhombus;whiteSpace=wrap;html=1;" vertex="1" parent="1">
          <mxGeometry x="470" y="260" width="210" height="80" as="geometry" />
        </mxCell>
      </root>
    </mxGraphModel>
  </diagram>
</mxfile>
